<svg width="20" height="17" viewBox="0 0 20 17" fill="none" xmlns="http://www.w3.org/2000/svg">
<path d="M1.68111 9.89991C1.73559 12.4546 1.76283 13.7318 2.70544 14.6781C3.64804 15.6242 4.95991 15.6572 7.58366 15.7231C9.20072 15.7637 10.8019 15.7637 12.419 15.7231C15.0427 15.6572 16.3546 15.6242 17.2972 14.6781C18.2398 13.7318 18.2671 12.4546 18.3215 9.89991C18.3391 9.0785 18.3391 8.262 18.3215 7.44058C18.2671 4.88596 18.2398 3.60866 17.2972 2.66246C16.3546 1.71627 15.0427 1.68332 12.419 1.61739C10.8019 1.57676 9.20072 1.57676 7.58365 1.61738C4.95991 1.6833 3.64804 1.71626 2.70543 2.66246C1.76282 3.60865 1.73559 4.88596 1.6811 7.44058C1.66359 8.262 1.66359 9.0785 1.68111 9.89991Z" stroke="white" stroke-width="1.5" stroke-linejoin="round"/>
</svg>
